<?xml version="1.0" encoding="UTF-8"?>
<svg width="512" height="512" viewBox="0 0 512 512" xmlns="http://www.w3.org/2000/svg" role="img" aria-label="Microphone teal logo with waveform">
  <defs>
    <linearGradient id="tealGrad" x1="0" x2="1" y1="0" y2="1">
      <stop offset="0" stop-color="#2DD4BF"/>
      <stop offset="1" stop-color="#3B82F6"/>
    </linearGradient>
    <filter id="soft" x="-20%" y="-20%" width="140%" height="140%">
      <feDropShadow dx="0" dy="10" stdDeviation="20" flood-color="#0b1220" flood-opacity="0.12"/>
    </filter>
  </defs>
  <rect rx="56" width="512" height="512" fill="url(#tealGrad)"/>
  <g transform="translate(120,108)" filter="url(#soft)">
    <rect x="24" y="0" width="152" height="200" rx="76" fill="#ffffff" opacity="0.06"/>
    <rect x="64" y="20" width="88" height="156" rx="44" fill="none" stroke="#ffffff" stroke-width="12" stroke-opacity="0.95"/>
    <path d="M108 20v120" stroke="#ffffff" stroke-width="16" stroke-linecap="round"/>
    <path d="M32 208h152" stroke="#ffffff" stroke-width="14" stroke-linecap="round"/>
    <path d="M108 208v44" stroke="#ffffff" stroke-width="12" stroke-linecap="round"/>
    <g transform="translate(240,64) scale(0.95)">
      <path d="M0 40 C12 8, 36 8, 48 40 C60 72, 84 72, 96 40 C108 8, 132 8, 144 40" stroke="#ffffff" stroke-width="6" fill="none" stroke-linecap="round" opacity="0.95"/>
      <path d="M0 40 C12 8, 36 8, 48 40 C60 72, 84 72, 96 40 C108 8, 132 8, 144 40" stroke="url(#tealGrad)" stroke-width="4" fill="none" stroke-linecap="round"/>
    </g>
  </g>
</svg>